{
	"patcher" : 	{
		"fileversion" : 1,
		"appversion" : 		{
			"major" : 8,
			"minor" : 0,
			"revision" : 3,
			"architecture" : "x64",
			"modernui" : 1
		}
,
		"classnamespace" : "box",
		"rect" : [ 419.0, 272.0, 871.0, 663.0 ],
		"bglocked" : 0,
		"openinpresentation" : 0,
		"default_fontsize" : 12.0,
		"default_fontface" : 0,
		"default_fontname" : "Arial",
		"gridonopen" : 1,
		"gridsize" : [ 15.0, 15.0 ],
		"gridsnaponopen" : 1,
		"objectsnaponopen" : 1,
		"statusbarvisible" : 2,
		"toolbarvisible" : 1,
		"lefttoolbarpinned" : 0,
		"toptoolbarpinned" : 0,
		"righttoolbarpinned" : 0,
		"bottomtoolbarpinned" : 0,
		"toolbars_unpinned_last_save" : 0,
		"tallnewobj" : 1,
		"boxanimatetime" : 200,
		"enablehscroll" : 1,
		"enablevscroll" : 1,
		"devicewidth" : 0.0,
		"description" : "",
		"digest" : "",
		"tags" : "",
		"style" : "",
		"subpatcher_template" : "",
		"boxes" : [ 			{
				"box" : 				{
					"id" : "obj-22",
					"linecount" : 4,
					"maxclass" : "comment",
					"numinlets" : 1,
					"numoutlets" : 0,
					"patching_rect" : [ 281.0, 369.62994384765625, 150.0, 60.0 ],
					"presentation_linecount" : 4,
					"text" : "-Randomly chooses a buffer to play back\n\n-Randomly pans clap "
				}

			}
, 			{
				"box" : 				{
					"id" : "obj-21",
					"linecount" : 2,
					"maxclass" : "comment",
					"numinlets" : 1,
					"numoutlets" : 0,
					"patching_rect" : [ 547.0, 298.0, 150.0, 33.0 ],
					"text" : "We can add more \"clap\" files "
				}

			}
, 			{
				"box" : 				{
					"id" : "obj-3",
					"maxclass" : "gain~",
					"multichannelvariant" : 0,
					"numinlets" : 1,
					"numoutlets" : 2,
					"outlettype" : [ "signal", "" ],
					"parameter_enable" : 1,
					"patching_rect" : [ 138.054946899414062, 414.0, 21.0, 74.0 ],
					"saved_attribute_attributes" : 					{
						"valueof" : 						{
							"parameter_type" : 0,
							"parameter_longname" : "gain~[1]",
							"parameter_mmax" : 157.0,
							"parameter_shortname" : "gain~"
						}

					}
,
					"varname" : "gain~[1]"
				}

			}
, 			{
				"box" : 				{
					"id" : "obj-2",
					"maxclass" : "meter~",
					"numinlets" : 1,
					"numoutlets" : 1,
					"outlettype" : [ "float" ],
					"patching_rect" : [ 119.554946899414062, 414.0, 14.0, 69.0 ]
				}

			}
, 			{
				"box" : 				{
					"id" : "obj-32",
					"maxclass" : "newobj",
					"numinlets" : 1,
					"numoutlets" : 2,
					"outlettype" : [ "float", "bang" ],
					"patching_rect" : [ 419.0, 308.109893798828125, 92.0, 26.0 ],
					"text" : "buffer~ clap2 -1"
				}

			}
, 			{
				"box" : 				{
					"id" : "obj-31",
					"maxclass" : "message",
					"numinlets" : 2,
					"numoutlets" : 1,
					"outlettype" : [ "" ],
					"patching_rect" : [ 419.0, 280.109893798828125, 103.0, 22.0 ],
					"text" : "read clap_02.wav"
				}

			}
, 			{
				"box" : 				{
					"id" : "obj-28",
					"maxclass" : "button",
					"numinlets" : 1,
					"numoutlets" : 1,
					"outlettype" : [ "bang" ],
					"parameter_enable" : 1,
					"patching_rect" : [ 116.25, 70.5, 100.609893798828125, 100.609893798828125 ],
					"saved_attribute_attributes" : 					{
						"valueof" : 						{
							"parameter_enum" : [ "off", "on" ],
							"parameter_type" : 2,
							"parameter_longname" : "button[4]",
							"parameter_mmax" : 1.0,
							"parameter_shortname" : "button[4]"
						}

					}
,
					"varname" : "button[4]"
				}

			}
, 			{
				"box" : 				{
					"bgcolor" : [ 0.223529, 0.235294, 0.219608, 1.0 ],
					"bordercolor" : [ 0.164706, 0.776471, 0.878431, 1.0 ],
					"id" : "obj-34",
					"linecount" : 2,
					"maxclass" : "textedit",
					"numinlets" : 1,
					"numoutlets" : 4,
					"outlettype" : [ "", "int", "", "" ],
					"parameter_enable" : 0,
					"patching_rect" : [ 336.0, 143.21978759765625, 269.0, 37.0 ],
					"text" : "websocket connection available at: http://192.168.1.5:8086"
				}

			}
, 			{
				"box" : 				{
					"bubble" : 1,
					"id" : "obj-4",
					"linecount" : 2,
					"maxclass" : "comment",
					"numinlets" : 1,
					"numoutlets" : 0,
					"patching_rect" : [ 464.75, 72.71978759765625, 126.5, 37.0 ],
					"text" : "refresh websocket connection info"
				}

			}
, 			{
				"box" : 				{
					"bgcolor" : [ 0.164706, 0.776471, 0.878431, 1.0 ],
					"blinkcolor" : [ 0.898039, 0.780392, 0.368627, 1.0 ],
					"id" : "obj-6",
					"maxclass" : "button",
					"numinlets" : 1,
					"numoutlets" : 1,
					"outlettype" : [ "bang" ],
					"parameter_enable" : 1,
					"patching_rect" : [ 437.0, 79.21978759765625, 24.0, 24.0 ],
					"saved_attribute_attributes" : 					{
						"valueof" : 						{
							"parameter_enum" : [ "off", "on" ],
							"parameter_type" : 2,
							"parameter_longname" : "button[2]",
							"parameter_mmax" : 1.0,
							"parameter_shortname" : "button[1]"
						}

					}
,
					"varname" : "button[2]"
				}

			}
, 			{
				"box" : 				{
					"bubble" : 1,
					"id" : "obj-19",
					"linecount" : 2,
					"maxclass" : "comment",
					"numinlets" : 1,
					"numoutlets" : 0,
					"patching_rect" : [ 432.0, 185.109893798828125, 192.0, 37.0 ],
					"text" : "use this address on another device to connect to the server"
				}

			}
, 			{
				"box" : 				{
					"id" : "obj-20",
					"maxclass" : "newobj",
					"numinlets" : 2,
					"numoutlets" : 1,
					"outlettype" : [ "" ],
					"patcher" : 					{
						"fileversion" : 1,
						"appversion" : 						{
							"major" : 8,
							"minor" : 0,
							"revision" : 3,
							"architecture" : "x64",
							"modernui" : 1
						}
,
						"classnamespace" : "box",
						"rect" : [ 108.0, 86.0, 634.0, 435.0 ],
						"bglocked" : 0,
						"openinpresentation" : 0,
						"default_fontsize" : 12.0,
						"default_fontface" : 0,
						"default_fontname" : "Arial",
						"gridonopen" : 1,
						"gridsize" : [ 15.0, 15.0 ],
						"gridsnaponopen" : 1,
						"objectsnaponopen" : 1,
						"statusbarvisible" : 2,
						"toolbarvisible" : 1,
						"lefttoolbarpinned" : 0,
						"toptoolbarpinned" : 0,
						"righttoolbarpinned" : 0,
						"bottomtoolbarpinned" : 0,
						"toolbars_unpinned_last_save" : 0,
						"tallnewobj" : 0,
						"boxanimatetime" : 200,
						"enablehscroll" : 1,
						"enablevscroll" : 1,
						"devicewidth" : 0.0,
						"description" : "",
						"digest" : "",
						"tags" : "",
						"style" : "",
						"subpatcher_template" : "",
						"boxes" : [ 							{
								"box" : 								{
									"id" : "obj-7",
									"maxclass" : "newobj",
									"numinlets" : 1,
									"numoutlets" : 2,
									"outlettype" : [ "", "clear" ],
									"patching_rect" : [ 356.0, 294.0, 49.0, 22.0 ],
									"text" : "t l clear"
								}

							}
, 							{
								"box" : 								{
									"id" : "obj-11",
									"maxclass" : "message",
									"numinlets" : 2,
									"numoutlets" : 1,
									"outlettype" : [ "" ],
									"patching_rect" : [ 140.5, 101.0, 181.0, 22.0 ],
									"text" : "getwebsocketport, gethostname"
								}

							}
, 							{
								"box" : 								{
									"id" : "obj-8",
									"maxclass" : "newobj",
									"numinlets" : 3,
									"numoutlets" : 1,
									"outlettype" : [ "" ],
									"patching_rect" : [ 140.5, 201.0, 57.0, 22.0 ],
									"text" : "pack s i i"
								}

							}
, 							{
								"box" : 								{
									"id" : "obj-6",
									"maxclass" : "newobj",
									"numinlets" : 3,
									"numoutlets" : 3,
									"outlettype" : [ "", "", "" ],
									"patching_rect" : [ 140.5, 163.0, 118.0, 22.0 ],
									"text" : "route hostname port"
								}

							}
, 							{
								"box" : 								{
									"id" : "obj-2",
									"maxclass" : "newobj",
									"numinlets" : 1,
									"numoutlets" : 1,
									"outlettype" : [ "" ],
									"patching_rect" : [ 140.5, 132.0, 69.0, 22.0 ],
									"text" : "mira.status"
								}

							}
, 							{
								"box" : 								{
									"id" : "obj-24",
									"maxclass" : "button",
									"numinlets" : 1,
									"numoutlets" : 1,
									"outlettype" : [ "bang" ],
									"parameter_enable" : 0,
									"patching_rect" : [ 281.0, 17.0, 24.0, 24.0 ]
								}

							}
, 							{
								"box" : 								{
									"comment" : "",
									"id" : "obj-19",
									"index" : 2,
									"maxclass" : "inlet",
									"numinlets" : 0,
									"numoutlets" : 1,
									"outlettype" : [ "bang" ],
									"patching_rect" : [ 231.25, 11.0, 30.0, 30.0 ]
								}

							}
, 							{
								"box" : 								{
									"id" : "obj-17",
									"maxclass" : "newobj",
									"numinlets" : 1,
									"numoutlets" : 2,
									"outlettype" : [ "bang", "bang" ],
									"patching_rect" : [ 65.0, 53.0, 34.0, 22.0 ],
									"text" : "t b b"
								}

							}
, 							{
								"box" : 								{
									"id" : "obj-15",
									"maxclass" : "newobj",
									"numinlets" : 1,
									"numoutlets" : 1,
									"outlettype" : [ "bang" ],
									"patching_rect" : [ 140.5, 11.0, 60.0, 22.0 ],
									"text" : "loadbang"
								}

							}
, 							{
								"box" : 								{
									"id" : "obj-14",
									"maxclass" : "newobj",
									"numinlets" : 2,
									"numoutlets" : 2,
									"outlettype" : [ "", "" ],
									"patching_rect" : [ 65.0, 294.0, 40.0, 22.0 ],
									"text" : "zl.reg"
								}

							}
, 							{
								"box" : 								{
									"id" : "obj-4",
									"maxclass" : "newobj",
									"numinlets" : 3,
									"numoutlets" : 1,
									"outlettype" : [ "" ],
									"patching_rect" : [ 140.5, 246.0, 211.0, 22.0 ],
									"text" : "sprintf symout http://%s:%d/?port=%d"
								}

							}
, 							{
								"box" : 								{
									"id" : "obj-3",
									"linecount" : 2,
									"maxclass" : "newobj",
									"numinlets" : 2,
									"numoutlets" : 1,
									"outlettype" : [ "" ],
									"patching_rect" : [ 356.0, 246.0, 255.0, 35.0 ],
									"text" : "sprintf set websocket connection available at: http://%s:%d"
								}

							}
, 							{
								"box" : 								{
									"comment" : "",
									"id" : "obj-1",
									"index" : 1,
									"maxclass" : "outlet",
									"numinlets" : 1,
									"numoutlets" : 0,
									"patching_rect" : [ 356.0, 349.5, 30.0, 30.0 ]
								}

							}
, 							{
								"box" : 								{
									"id" : "obj-10",
									"linecount" : 2,
									"maxclass" : "message",
									"numinlets" : 2,
									"numoutlets" : 1,
									"outlettype" : [ "" ],
									"patching_rect" : [ 65.0, 337.0, 131.0, 35.0 ],
									"text" : ";\rmax launchbrowser $1"
								}

							}
, 							{
								"box" : 								{
									"comment" : "",
									"id" : "obj-5",
									"index" : 1,
									"maxclass" : "inlet",
									"numinlets" : 0,
									"numoutlets" : 1,
									"outlettype" : [ "bang" ],
									"patching_rect" : [ 65.0, 11.0, 30.0, 30.0 ]
								}

							}
 ],
						"lines" : [ 							{
								"patchline" : 								{
									"destination" : [ "obj-2", 0 ],
									"source" : [ "obj-11", 0 ]
								}

							}
, 							{
								"patchline" : 								{
									"destination" : [ "obj-10", 0 ],
									"source" : [ "obj-14", 0 ]
								}

							}
, 							{
								"patchline" : 								{
									"destination" : [ "obj-11", 0 ],
									"source" : [ "obj-15", 0 ]
								}

							}
, 							{
								"patchline" : 								{
									"destination" : [ "obj-11", 0 ],
									"source" : [ "obj-17", 1 ]
								}

							}
, 							{
								"patchline" : 								{
									"destination" : [ "obj-14", 0 ],
									"source" : [ "obj-17", 0 ]
								}

							}
, 							{
								"patchline" : 								{
									"destination" : [ "obj-11", 0 ],
									"source" : [ "obj-19", 0 ]
								}

							}
, 							{
								"patchline" : 								{
									"destination" : [ "obj-6", 0 ],
									"source" : [ "obj-2", 0 ]
								}

							}
, 							{
								"patchline" : 								{
									"destination" : [ "obj-11", 0 ],
									"source" : [ "obj-24", 0 ]
								}

							}
, 							{
								"patchline" : 								{
									"color" : [ 0.65, 0.65, 0.65, 0.9 ],
									"destination" : [ "obj-7", 0 ],
									"source" : [ "obj-3", 0 ]
								}

							}
, 							{
								"patchline" : 								{
									"destination" : [ "obj-14", 1 ],
									"source" : [ "obj-4", 0 ]
								}

							}
, 							{
								"patchline" : 								{
									"destination" : [ "obj-17", 0 ],
									"source" : [ "obj-5", 0 ]
								}

							}
, 							{
								"patchline" : 								{
									"destination" : [ "obj-8", 2 ],
									"order" : 0,
									"source" : [ "obj-6", 1 ]
								}

							}
, 							{
								"patchline" : 								{
									"destination" : [ "obj-8", 1 ],
									"order" : 1,
									"source" : [ "obj-6", 1 ]
								}

							}
, 							{
								"patchline" : 								{
									"destination" : [ "obj-8", 0 ],
									"source" : [ "obj-6", 0 ]
								}

							}
, 							{
								"patchline" : 								{
									"destination" : [ "obj-1", 0 ],
									"source" : [ "obj-7", 1 ]
								}

							}
, 							{
								"patchline" : 								{
									"destination" : [ "obj-1", 0 ],
									"source" : [ "obj-7", 0 ]
								}

							}
, 							{
								"patchline" : 								{
									"destination" : [ "obj-3", 0 ],
									"order" : 0,
									"source" : [ "obj-8", 0 ]
								}

							}
, 							{
								"patchline" : 								{
									"destination" : [ "obj-4", 0 ],
									"order" : 1,
									"source" : [ "obj-8", 0 ]
								}

							}
 ]
					}
,
					"patching_rect" : [ 336.0, 113.21978759765625, 120.0, 26.0 ],
					"saved_object_attributes" : 					{
						"description" : "",
						"digest" : "",
						"globalpatchername" : "",
						"tags" : ""
					}
,
					"text" : "p openBrowser"
				}

			}
, 			{
				"box" : 				{
					"bubble" : 1,
					"id" : "obj-25",
					"linecount" : 2,
					"maxclass" : "comment",
					"numinlets" : 1,
					"numoutlets" : 0,
					"patching_rect" : [ 433.25, 22.21978759765625, 156.0, 37.0 ],
					"text" : "click to open web browser on this machine"
				}

			}
, 			{
				"box" : 				{
					"bgcolor" : [ 0.164706, 0.776471, 0.878431, 1.0 ],
					"blinkcolor" : [ 0.898039, 0.780392, 0.368627, 1.0 ],
					"id" : "obj-29",
					"maxclass" : "button",
					"numinlets" : 1,
					"numoutlets" : 1,
					"outlettype" : [ "bang" ],
					"parameter_enable" : 1,
					"patching_rect" : [ 336.0, 12.21978759765625, 91.0, 91.0 ],
					"saved_attribute_attributes" : 					{
						"valueof" : 						{
							"parameter_enum" : [ "off", "on" ],
							"parameter_type" : 2,
							"parameter_longname" : "button[3]",
							"parameter_mmax" : 1.0,
							"parameter_shortname" : "button"
						}

					}
,
					"varname" : "button[3]"
				}

			}
, 			{
				"box" : 				{
					"fontface" : 1,
					"fontsize" : 16.0,
					"id" : "obj-5",
					"linecount" : 2,
					"maxclass" : "comment",
					"numinlets" : 1,
					"numoutlets" : 0,
					"patching_rect" : [ 93.554946899414062, 25.0, 146.0, 42.0 ],
					"text" : "CLICK/TAP HERE TO APPLAUD!",
					"textcolor" : [ 0.996078431606293, 0.964705884456635, 0.0, 1.0 ],
					"textjustification" : 1
				}

			}
, 			{
				"box" : 				{
					"id" : "obj-17",
					"maxclass" : "button",
					"numinlets" : 1,
					"numoutlets" : 1,
					"outlettype" : [ "bang" ],
					"parameter_enable" : 1,
					"patching_rect" : [ 77.054946899414062, 298.0, 24.0, 24.0 ],
					"saved_attribute_attributes" : 					{
						"valueof" : 						{
							"parameter_enum" : [ "off", "on" ],
							"parameter_type" : 2,
							"parameter_longname" : "button",
							"parameter_mmax" : 1.0,
							"parameter_shortname" : "button"
						}

					}
,
					"varname" : "button"
				}

			}
, 			{
				"box" : 				{
					"id" : "obj-14",
					"maxclass" : "meter~",
					"numinlets" : 1,
					"numoutlets" : 1,
					"outlettype" : [ "float" ],
					"patching_rect" : [ 104.054946899414062, 414.0, 14.0, 69.0 ]
				}

			}
, 			{
				"box" : 				{
					"id" : "obj-13",
					"maxclass" : "gain~",
					"multichannelvariant" : 0,
					"numinlets" : 1,
					"numoutlets" : 2,
					"outlettype" : [ "signal", "" ],
					"parameter_enable" : 1,
					"patching_rect" : [ 81.054946899414062, 414.0, 21.0, 74.0 ],
					"saved_attribute_attributes" : 					{
						"valueof" : 						{
							"parameter_type" : 0,
							"parameter_longname" : "gain~",
							"parameter_mmax" : 157.0,
							"parameter_shortname" : "gain~"
						}

					}
,
					"varname" : "gain~"
				}

			}
, 			{
				"box" : 				{
					"id" : "obj-11",
					"maxclass" : "ezdac~",
					"numinlets" : 2,
					"numoutlets" : 0,
					"patching_rect" : [ 104.054946899414062, 540.0, 45.0, 45.0 ]
				}

			}
, 			{
				"box" : 				{
					"id" : "obj-10",
					"maxclass" : "message",
					"numinlets" : 2,
					"numoutlets" : 1,
					"outlettype" : [ "" ],
					"patching_rect" : [ 295.0, 280.109893798828125, 103.0, 22.0 ],
					"text" : "read clap_01.wav"
				}

			}
, 			{
				"box" : 				{
					"id" : "obj-8",
					"maxclass" : "newobj",
					"numinlets" : 1,
					"numoutlets" : 1,
					"outlettype" : [ "bang" ],
					"patching_rect" : [ 295.0, 247.609893798828125, 58.0, 26.0 ],
					"text" : "loadbang"
				}

			}
, 			{
				"box" : 				{
					"id" : "obj-7",
					"maxclass" : "newobj",
					"numinlets" : 1,
					"numoutlets" : 2,
					"outlettype" : [ "float", "bang" ],
					"patching_rect" : [ 295.0, 308.109893798828125, 92.0, 26.0 ],
					"text" : "buffer~ clap1 -1"
				}

			}
, 			{
				"box" : 				{
					"fontname" : "Arial",
					"fontsize" : 12.0,
					"id" : "obj-12",
					"maxclass" : "newobj",
					"numinlets" : 1,
					"numoutlets" : 1,
					"outlettype" : [ "" ],
					"patching_rect" : [ 77.054946899414062, 329.62994384765625, 82.0, 26.0 ],
					"text" : "prepend note"
				}

			}
, 			{
				"box" : 				{
					"id" : "obj-15",
					"maxclass" : "newobj",
					"numinlets" : 1,
					"numoutlets" : 2,
					"outlettype" : [ "signal", "signal" ],
					"patching_rect" : [ 77.054946899414062, 369.62994384765625, 196.0, 26.0 ],
					"text" : "poly~ Venue_TheClapper_poly 128"
				}

			}
, 			{
				"box" : 				{
					"background" : 1,
					"id" : "obj-1",
					"ignoreclick" : 1,
					"maxclass" : "mira.frame",
					"numinlets" : 0,
					"numoutlets" : 0,
					"patching_rect" : [ 11.0, 7.0, 302.572165918831161, 215.109893798828125 ],
					"presentation" : 1,
					"presentation_rect" : [ 11.0, 7.0, 302.572165918831161, 215.109893798828125 ],
					"tabname" : "GO_CHEER"
				}

			}
 ],
		"lines" : [ 			{
				"patchline" : 				{
					"destination" : [ "obj-7", 0 ],
					"source" : [ "obj-10", 0 ]
				}

			}
, 			{
				"patchline" : 				{
					"destination" : [ "obj-15", 0 ],
					"source" : [ "obj-12", 0 ]
				}

			}
, 			{
				"patchline" : 				{
					"destination" : [ "obj-11", 0 ],
					"order" : 0,
					"source" : [ "obj-13", 0 ]
				}

			}
, 			{
				"patchline" : 				{
					"destination" : [ "obj-14", 0 ],
					"order" : 1,
					"source" : [ "obj-13", 0 ]
				}

			}
, 			{
				"patchline" : 				{
					"destination" : [ "obj-3", 0 ],
					"source" : [ "obj-13", 1 ]
				}

			}
, 			{
				"patchline" : 				{
					"destination" : [ "obj-13", 0 ],
					"source" : [ "obj-15", 0 ]
				}

			}
, 			{
				"patchline" : 				{
					"destination" : [ "obj-3", 0 ],
					"source" : [ "obj-15", 1 ]
				}

			}
, 			{
				"patchline" : 				{
					"destination" : [ "obj-12", 0 ],
					"source" : [ "obj-17", 0 ]
				}

			}
, 			{
				"patchline" : 				{
					"destination" : [ "obj-34", 0 ],
					"source" : [ "obj-20", 0 ]
				}

			}
, 			{
				"patchline" : 				{
					"destination" : [ "obj-17", 0 ],
					"source" : [ "obj-28", 0 ]
				}

			}
, 			{
				"patchline" : 				{
					"destination" : [ "obj-20", 0 ],
					"source" : [ "obj-29", 0 ]
				}

			}
, 			{
				"patchline" : 				{
					"destination" : [ "obj-11", 1 ],
					"order" : 0,
					"source" : [ "obj-3", 0 ]
				}

			}
, 			{
				"patchline" : 				{
					"destination" : [ "obj-2", 0 ],
					"order" : 1,
					"source" : [ "obj-3", 0 ]
				}

			}
, 			{
				"patchline" : 				{
					"destination" : [ "obj-32", 0 ],
					"source" : [ "obj-31", 0 ]
				}

			}
, 			{
				"patchline" : 				{
					"destination" : [ "obj-20", 1 ],
					"source" : [ "obj-6", 0 ]
				}

			}
, 			{
				"patchline" : 				{
					"destination" : [ "obj-10", 0 ],
					"order" : 1,
					"source" : [ "obj-8", 0 ]
				}

			}
, 			{
				"patchline" : 				{
					"destination" : [ "obj-31", 0 ],
					"order" : 0,
					"source" : [ "obj-8", 0 ]
				}

			}
 ],
		"parameters" : 		{
			"obj-13" : [ "gain~", "gain~", 0 ],
			"obj-6" : [ "button[2]", "button[1]", 0 ],
			"obj-3" : [ "gain~[1]", "gain~", 0 ],
			"obj-17" : [ "button", "button", 0 ],
			"obj-29" : [ "button[3]", "button", 0 ],
			"obj-28" : [ "button[4]", "button[4]", 0 ],
			"parameterbanks" : 			{

			}

		}
,
		"dependency_cache" : [ 			{
				"name" : "Venue_TheClapper_poly.maxpat",
				"bootpath" : "~/Google Drive/Audio/GoCheer_SK/VenueMaxPatch",
				"patcherrelativepath" : ".",
				"type" : "JSON",
				"implicit" : 1
			}
, 			{
				"name" : "mira.status.mxo",
				"type" : "iLaX"
			}
 ],
		"autosave" : 0,
		"styles" : [ 			{
				"name" : "newobjBlue-1",
				"default" : 				{
					"accentcolor" : [ 0.317647, 0.654902, 0.976471, 1.0 ]
				}
,
				"parentstyle" : "",
				"multi" : 0
			}
, 			{
				"name" : "newobjBrown-1",
				"default" : 				{
					"accentcolor" : [ 0.654902, 0.572549, 0.376471, 1.0 ]
				}
,
				"parentstyle" : "",
				"multi" : 0
			}
, 			{
				"name" : "newobjCyan-1",
				"default" : 				{
					"accentcolor" : [ 0.029546, 0.773327, 0.821113, 1.0 ]
				}
,
				"parentstyle" : "",
				"multi" : 0
			}
, 			{
				"name" : "newobjGreen-1",
				"default" : 				{
					"accentcolor" : [ 0.0, 0.533333, 0.168627, 1.0 ]
				}
,
				"parentstyle" : "",
				"multi" : 0
			}
, 			{
				"name" : "newobjYellow-1",
				"default" : 				{
					"fontsize" : [ 12.059008 ],
					"accentcolor" : [ 0.82517, 0.78181, 0.059545, 1.0 ]
				}
,
				"parentstyle" : "",
				"multi" : 0
			}
 ],
		"bgfillcolor_type" : "gradient",
		"bgfillcolor_color1" : [ 0.454902, 0.462745, 0.482353, 1.0 ],
		"bgfillcolor_color2" : [ 0.290196, 0.309804, 0.301961, 1.0 ],
		"bgfillcolor_color" : [ 0.290196, 0.309804, 0.301961, 1.0 ]
	}

}
